<?xml version="1.0" encoding="utf-8"?>
<!-- Generator: Adobe Illustrator 22.1.0, SVG Export Plug-In . SVG Version: 6.00 Build 0)  -->
<svg version="1.1" id="圖層_1" xmlns="http://www.w3.org/2000/svg" xmlns:xlink="http://www.w3.org/1999/xlink" x="0px" y="0px"
	 viewBox="0 0 287 59" style="enable-background:new 0 0 287 59;" xml:space="preserve">
<style type="text/css">
	.st0{fill:#003D73;}
	.st1{fill:#0C0C0C;}
	.st2{font-family:'Helvetica';}
	.st3{font-size:12.2914px;}
</style>
<g>
	<g>
		<path class="st0" d="M6.1,50.4L6.1,50.4L6.1,50.4H6l-0.4,0l0,0l0-0.1l0,0h0l0,0l0-0.1l0,0H5.4l0,0h0l0,0l-0.2,0l0,0V50l0,0
			l0.2-1.5l0,0l0-1.5l0,0l-0.1-1.5l0,0l-0.2-1.6l0,0l-0.5-1.4l0,0l-0.6-1.4l0,0l-0.8-1.3l0,0c-0.3-0.4-0.6-0.8-0.9-1.2l0,0
			c-0.3-0.9-0.3-2.1-0.3-3.3c0,0,0-0.5,0-0.5l0-1l0,0l0.4-1.1l0,0l0.4-1.2l0,0l0.6-1.1l0,0L4,29.3l0,0l0.9-1.2l0,0L5.6,27l0,0
			l0.8-1.2l0,0L7.6,24l0,0l1.5-1.7l0,0l1.7-1.6l0,0l2-1.6l0,0l1.9-1.5l0,0l2.1-1.5l0,0l2.1-1.4l0,0l2.1-1.5l0,0l1.5-1l0,0l1.7-1l0,0
			l1.6-1l0,0l1.7-1l0,0l1.5-1l0,0l1.6-1.3l0,0l1.5-1.3l0,0l1.5-0.9l0,0l0,0l0,0h0l0,0h0.1l0,0h0.1l0,0l0.1,0l0,0h0l0,0h0.1l0,0
			l0.2,0l0,0l2.6,0.4l0,0L36.7,5l0,0h0.2l0,0L37.1,5l0,0h0.2l0,0l0.2,0l0,0h0.2l0,0l0.2,0l0,0l0.3,0l0,0L38,5.2l0,0v0.2l0,0
			l-0.2,0.2l0,0l0,0.1l0,0l-0.3,0.2l0,0l-0.2,0.1l0,0l-0.2,0.2l0,0l0,0.1L37,6.3l-3.2,2.1l0,0l-3.3,2l0,0l-3.3,2l0,0L24,14.4l0,0
			l-3.2,2.1l0,0l-3,2.2l0,0L15.1,21l0,0l-2.4,2.6l0,0l-0.1,0.1l0,0l0,0l0,0l-0.2,0.1l0,0l0,0l0,0L12.3,24l0,0l-0.1,0l0,0L12.2,24
			l0,0l0,0l0,0l-1,1.3l0,0l-0.7,1.4l0,0l-0.8,1.3l0,0l-0.5,1.3l0,0l-0.5,1.5l0,0l-0.1,1.3l0,0l0,1.4l0,0L9,34.8l0,0l1.2,1.6l0,0
			l0.3,0.4l0,0l0.3,0.4l0,0l0.1,0.5l0,0l0.2,0.5l0,0l0,0.5l0,0l0.1,0.5l0,0l0.1,0.6l0,0l0.3,0.5l0,0l0,0.6l0,0l0.2,0.5l0,0l0.1,0.6
			l0,0l0.2,0.6l0,0l-0.1,0.6l0,0L12,43.7l0,0l-0.3,0.6l0,0l-0.4,0.5l0,0l-0.2,0.5l0,0l-0.2,0.4l0,0l-0.3,0.4l0,0l-0.2,0.5l0,0
			l-0.3,0.5l0,0l-0.3,0.4l0,0l-0.2,0.4l0,0l-0.3,0.4l0,0l-0.2,0.3l0,0l-0.2,0.3l0,0l-0.3,0.2l0,0l-0.2,0.2l0,0l-0.3,0.2l0,0L8,49.7
			l0,0l-0.3,0.2l0,0l-0.2,0.2l0,0l-0.2,0l0,0H7l0,0l-0.2,0.1l0,0l0,0l0,0l-0.2,0.1l0,0l-0.2,0l0,0L6.1,50.4z"/>
		<path class="st0" d="M44.2,42.8c-0.5,0.3-1,0.3-1.6,0.5l-2.5,0.1h-16c-1.2-0.1-2.5-0.1-3.3-0.2c-0.2-0.1-0.1-0.3-0.1-0.4
			c0-0.1,0-0.2,0.1-0.3v-0.1c0.2-0.3,0.3-0.6,0.5-0.8l0,0l0.6-0.8l0,0c1.3-1.2,2.6-2.5,3.9-3.7l2.3-2c1.3-1.6,3.7-3.7,4.3-5.6
			c1.4-2.8,2.9-4.8,4.8-7.2l0,0l1.3-1.4l0,0l1.2-1.3l0,0l1.3-1.3l0,0l0.6-0.9l0,0c1-1.2,1.8-2.4,2.7-3.6l2.9-2.1
			c0.2-0.1,0.2-0.2,0.4-0.2c0.3-0.6,1.2-1.3,1.1-1.7c0-0.2-1.4-0.7-1.5-0.8l0,0c-0.4-0.2-0.2-0.1-0.5-0.5l0,0
			c-0.2-0.1-0.3-0.2-0.5-0.4l0,0c-0.3-0.1-0.7-0.2-1-0.4l0,0c-0.7-0.2-0.6-0.2-1-0.8c0.1-0.2-0.1-0.3,0-0.5c-0.3-0.1,0-0.5-0.1-0.8
			c-0.4-0.6,0.6-0.6,1-0.9l1.9-0.1c1.4,0,3.1,0,4.5,0c1.2,0,2.3,0,3.2,0c0.3,0,0.3,0.1,0.4,0.2c0.1,0.2,0.2,0.3,0.2,0.7
			c0,0.3,0,0.6-0.1,1.1L50.5,23l-4.8,16.4c-0.1,0.5-0.4,1-0.6,1.5C45,41.5,44.8,42.2,44.2,42.8z"/>
	</g>
	<g>
		<path class="st1" d="M70.3,28.3L70,29.4h-2.3L74,6.2c0.2-0.5,0.5-0.8,1-0.8h21.6c0.5,0,0.7,0.3,0.6,0.8l-6.4,23.2h-2.3l0.3-1.1
			H70.3z M91.8,7.6c0,0.6,0.1,1.2,0.1,1.8h1.2l-0.6,2.1h-5c-0.4,2.9-0.6,5.1-0.7,6.4c1.1-1.6,2.1-3.3,3.1-5.2l1.9,0.6
			c-1.6,3-3.2,5.4-4.8,7.2c-0.1,0.1-0.1,0.1-0.2,0.2c0.1,0.7,0.1,1.4,0.2,1.9c0.1,0.6,0.1,0.9,0.2,0.9c0.2,0,0.3-0.2,0.4-0.5
			c0.3-0.8,0.5-1.7,0.8-2.8l1.9,0.5c-0.7,2.2-1.3,3.7-2,4.7c-0.3,0.4-0.7,0.6-0.9,0.7C87.2,26,87,26,86.7,26c-0.5-0.1-0.9-0.4-1.2-1
			c-0.2-0.6-0.4-1.4-0.5-2.4c-1.3,1.3-2.6,2.5-3.8,3.4l-1.4-1.3c0.6-0.5,1.3-1,1.9-1.5c-2.8,0.7-5.8,1.1-9,1.2l0.2-2.1
			c4.1-0.3,7.3-0.8,9.5-1.3l-0.1,1.8c1-0.9,1.9-1.7,2.6-2.5C84.8,18,85,15,85.5,11.4h-9.4l0.6-2.1h9.2c0.1-0.6,0.2-1.2,0.4-1.8h-10
			c-0.2,0-0.3,0.1-0.4,0.3l-5.1,18.4h18.5l5.1-18.4c0-0.2,0-0.3-0.3-0.3H91.8z M82.4,19.9c-0.1,0.2-0.2,0.3-0.3,0.3h-8
			c-0.2,0-0.2-0.1-0.2-0.3l1.8-6.5c0-0.2,0.2-0.3,0.3-0.3h1.9H84c0.2,0,0.2,0.1,0.2,0.3L82.4,19.9z M81.6,15h-4.2
			c-0.1,0-0.1,0-0.1,0.1l-0.9,3.2c0,0.1,0,0.1,0.1,0.1h4.2c0.1,0,0.1,0,0.1-0.1L81.6,15C81.7,15,81.6,15,81.6,15z M89.7,9.4
			c0-0.7-0.1-1.3-0.2-1.8h-1.3c-0.1,0.6-0.2,1.2-0.3,1.8H89.7z"/>
		<path class="st1" d="M113.4,26.3c3-5,5.4-9.9,7.4-14.4l2.1,0.6c-2.1,4.6-4.5,9.2-7.1,13.9h7.2l-0.6,2.3H98.1l0.6-2.3H113.4z
			 M114.9,8l0.9-3.2h2.4L117.2,8h10.3l-0.6,2.3h-23.1l0.6-2.3H114.9z M105.9,12.5l2.4-0.5c0,5.1-0.2,9.3-0.5,12.5l-2.4,0.3
			C105.9,20.8,106.1,16.7,105.9,12.5z"/>
		<path class="st1" d="M133.2,28l-0.3,1.2h-2.4l3.1-11.2c0.2-0.5,0.5-0.8,1-0.8h17.8c0.6,0,0.8,0.3,0.6,0.8L150,29.2h-2.4l0.3-1.2
			H133.2z M153.3,13.3l-21,1.7c0-0.7,0-1.5,0-2.4l2.6-0.2c2.5-2.3,5-4.9,7.4-7.7l1.6,1.2c-1.4,1.7-3.3,3.9-5.8,6.3l13.9-1
			c-0.2-0.4-1-1.6-2.4-3.4l2.2-1.6c2.2,3.1,3.9,5.8,5,7.9l-2.2,1.4C154.2,14.8,153.8,14.1,153.3,13.3z M133.9,25.8h14.7l1.7-6
			c0.1-0.2,0-0.3-0.3-0.3h-14c-0.3,0-0.4,0.1-0.4,0.3L133.9,25.8z"/>
		<path class="st1" d="M165,18.8l2,0.1c-1.4,4-3.2,7.3-5.3,9.8l-2-0.7C162.2,25.1,164,22.1,165,18.8z M163.9,13.3l1.8-1.7
			c0.8,0.6,1.6,1.5,2.4,2.6l-1.8,1.6C165.4,14.7,164.6,13.9,163.9,13.3z M165.7,6.9l1.8-1.6c0.8,0.7,1.7,1.6,2.6,2.8l-1.8,1.6
			C167.3,8.4,166.5,7.5,165.7,6.9z M167.9,25.9l-0.4,0.9l-1.6-0.6l1.8-4.3c0.2-0.4,0.5-0.6,0.8-0.6h14.5l0.2-0.9
			c0-0.1,0-0.2-0.2-0.2h-15.1l0.5-1.8h16.7c0.3,0,0.4,0.2,0.4,0.4l-1.3,4.9h-1.9l0.2-0.7h-13.1c-0.2,0-0.4,0.2-0.5,0.5l-0.2,0.5
			h15.9c0.4,0,0.6,0.2,0.4,0.6c-0.6,1.7-1.1,2.8-1.7,3.4c-0.2,0.1-0.4,0.3-0.5,0.5c-1.7,1.2-6.3,1.3-13.6,0.4l0.4-1.9
			c2.7,0.4,5.8,0.6,9.1,0.6c1.8,0,2.9-0.3,3.5-0.8c0.2-0.3,0.3-0.6,0.4-1.1c0,0,0,0-0.2,0H167.9z M168.7,14.7l1.5,0.4
			c-0.3,0.7-0.8,1.8-1.5,3.3l-1.4-0.5C167.7,16.9,168.2,15.8,168.7,14.7z M171.1,13.7l-2.4,0.3c0.1-0.5,0.1-1.1,0-1.7l1.4-0.2
			c0.5-0.4,1.1-0.9,1.7-1.4c-0.7-0.8-1.3-1.4-2.1-1.9l1.3-1.5c0.1,0,0.2,0.1,0.5,0.3c0.8-0.9,1.5-1.9,2.3-3l1.3,0.8
			c-0.6,0.8-1.5,1.9-2.6,3.2c0.2,0.2,0.4,0.4,0.6,0.6c0.7-0.8,1.3-1.6,1.8-2.4l1.5,0.6c-0.6,1.1-1.9,2.5-3.9,4.3l1.7-0.3
			c0-0.3,0-0.6-0.1-0.9l1.6-0.4c0.1,1,0.1,2.1,0,3.5l-1.6,0.4c0-0.3,0-0.5,0.1-0.8l-1.2,0.2l-1.3,4.6h-1.8L171.1,13.7z M173.1,15
			l1.7-0.3c-0.1,1.2-0.2,2.2-0.3,2.9l-1.7,0.1C173,16.7,173.1,15.8,173.1,15z M180,17.7c-0.1,0.1-0.1,0.2-0.3,0.2h-4.5
			c-0.1,0-0.2-0.1-0.1-0.2l1.3-4.6c0-0.1,0.1-0.2,0.2-0.2h1.3h3.2c0.1,0,0.2,0.1,0.2,0.2L180,17.7z M176.9,11h5l-0.4,1.3h-5
			L176.9,11z M179.4,14.3h-1.9c-0.1,0-0.1,0-0.1,0l-0.6,2.2c0,0,0,0.1,0,0.1h1.9c0.1,0,0.1-0.1,0.1-0.1L179.4,14.3
			C179.5,14.3,179.4,14.3,179.4,14.3z M184.2,13.5l-2.4,0.3c0.1-0.5,0.1-1.1,0-1.7l1.5-0.2c0.4-0.3,0.9-0.8,1.4-1.2
			c-0.6-0.8-1.3-1.5-2-2.1l0.1-0.2h-6l0.4-1.3h6.2l-0.3,1l0.9-1c0.1,0,0.3,0.1,0.5,0.3c0.7-0.8,1.4-1.8,2.1-2.8l1.3,0.8
			c-0.5,0.8-1.4,1.8-2.4,3c0.2,0.2,0.4,0.5,0.6,0.8c0.7-0.9,1.4-1.7,1.9-2.5l1.5,0.6c-0.5,0.9-1.8,2.3-3.7,4.2l1.5-0.2
			c0-0.5-0.1-0.8-0.1-1l1.7-0.4c0.1,1.3,0.1,2.5,0.1,3.6l-1.7,0.3c0-0.3,0-0.5,0-0.7l-1.2,0.2l-1.3,4.8H183L184.2,13.5z M177.3,9.1
			h5.1l-0.4,1.4h-5.1L177.3,9.1z M178.2,5.1h5.5l-0.4,1.3h-5.5L178.2,5.1z M181.8,14.4l1.5,0.3c-0.5,1.2-1,2.4-1.4,3.4l-1.5-0.4
			C180.8,16.9,181.2,15.9,181.8,14.4z M186.1,14.8l1.7-0.4c0,1.5,0,2.6-0.1,3.2l-1.7,0.2C186.2,16.6,186.2,15.6,186.1,14.8z"/>
		<path class="st1" d="M204.1,23.3h-9.9l0.6-2.2h10.5c0.1-0.2,0.1-0.5,0.2-0.7l0.4-1.6h-11l0.6-2.2h10.9l0.6-2.1H198l0.6-2.2h9.1
			l0.6-2H198l0.6-2.2h6.2c-0.3-0.9-0.7-1.6-1-2.1l2.2-1.4c0.5,0.7,0.9,1.7,1.3,2.8l-1.2,0.7h6.6c1.3-1.6,2.1-2.7,2.6-3.5l1.7,1.1
			c-0.6,0.8-1.2,1.6-1.8,2.4h5.9l-0.6,2.2h-10.1l-0.6,2h8.9l-0.6,2.2h-8.9l-0.6,2.1h10.9l-0.6,2.2h-10.8l-0.4,1.6
			c-0.1,0.3-0.2,0.5-0.3,0.7h10.3l-0.6,2.2h-9.4c1.5,2.6,4.6,3.9,9.1,4l-1.3,2.3c-0.1,0-0.2,0-0.3,0c-4.8-0.3-8.1-2.1-9.8-5.2
			c-0.4,0.4-0.7,0.7-1.1,1.1c-2.4,2-6.5,3.4-12.1,4l0.1-2.4C198.3,26.8,202.1,25.5,204.1,23.3z"/>
		<path class="st1" d="M227.5,17.8c-0.7,0.6-1.4,1.1-2.1,1.6c-0.2-0.7-0.5-1.3-0.9-1.6c2.7-1.8,5.2-4.3,7.2-7.2l1.6,1.1
			c-1,1.2-2,2.4-3.1,3.6l-4,14.4h-2.1L227.5,17.8z M232.3,4.8l1.7,1c-2.1,2.9-4.4,5.2-6.8,7c-0.3-0.7-0.6-1.2-1-1.6
			C228.6,9.5,230.7,7.4,232.3,4.8z M233,13.9h2.1l-0.5,1.7c-1.5,4.9-3.1,8.6-4.7,11l-2-0.3c2-3,3.5-6.5,4.7-10.6L233,13.9z
			 M237,11.4h-3.4l0.6-2.1h3.4l1.3-4.7h2.2l-1.3,4.7h3.8l-0.6,2.1h-3.8l-5,18h-2.2L237,11.4z M239.7,14.2h2l-2.2,7.9
			c-0.1,0.4,0,0.6,0.4,0.6h1.5l-0.6,2.1h-3.1c-0.6,0-0.9-0.3-0.7-1L239.7,14.2z M246.6,13.8h-3.3l0.6-2.1h7.1l-0.5,2.1h-1.8
			l-3.6,12.9c-0.3,1-0.9,1.7-1.7,2.2c-1,0.6-2.6,0.5-4.9-0.2l0.7-2.2c1.9,0.6,3,0.7,3.5,0.4c0.2-0.1,0.3-0.4,0.4-0.7L246.6,13.8z
			 M241.7,5.6l2.1-0.9c0.4,1.4,0.6,2.4,0.7,3.1l-2.1,0.7C242.3,7.8,242,6.8,241.7,5.6z M246.3,6h5.9l-0.6,2.1h-5.9L246.3,6z"/>
		<path class="st1" d="M261.7,28c-3.6,0.8-6.5,1.3-8.7,1.5l0.1-2.2c0.4,0,0.9-0.1,1.4-0.2l4.2-15.1c0.1-0.4,0.4-0.6,0.8-0.6h2.7
			l0.6-2.2h2l-0.6,2.2h2.5c0.4,0,0.6,0.2,0.5,0.6l-2.7,9.9c-0.1,0.4-0.4,0.7-0.8,0.7h-5.7l-1.2,4.2c0.4-0.1,2-0.4,4.8-0.9
			c-0.2-1-0.3-1.6-0.3-1.9l2.2-0.7c0.4,3,0.6,4.8,0.6,5.5l-2.1,0.6C261.8,28.8,261.8,28.4,261.7,28z M264.6,7.1
			c-1.4,1.2-3.1,2.4-5.2,3.5l-1.5-1.4c3.1-1.4,5.2-2.9,6.4-4.2l2,0.1c-0.1,0.2-0.2,0.3-0.3,0.4c0.8,0.8,1.8,1.6,2.8,2.3l-2.1,1.7
			C266,8.8,265.3,8,264.6,7.1z M263.5,17.9h-4.3l-0.7,2.5h4c0.2,0,0.4-0.1,0.4-0.3L263.5,17.9z M259.7,15.8h4.3l0.5-1.9
			c0.1-0.3,0-0.5-0.4-0.5h-3.3c-0.3,0-0.6,0.2-0.7,0.5L259.7,15.8z M276.8,28.3c-0.2,0.5-0.5,0.8-1,0.8h-10.3
			c-0.5,0-0.6-0.3-0.5-0.7l4.4-15.9c0.1-0.4,0.4-0.6,0.8-0.6h9.7c0.4,0,0.6,0.2,0.5,0.6l-1.7,6.1c-0.1,0.4-0.4,0.6-0.8,0.6h-8.2
			l-0.5,1.9h8.9c0.5,0,0.7,0.2,0.5,0.7L276.8,28.3z M275.6,23.1h-7l-0.9,3.5c-0.1,0.2,0,0.3,0.2,0.3h6.8c0.2,0,0.3-0.1,0.3-0.3
			l0.9-3.2C275.9,23.2,275.8,23.1,275.6,23.1z M274.8,6.6l0.5-1.7h2.3l-0.5,1.7h4.8l1.6,0.9c-0.5,1.2-1.3,2.7-2.3,4.4l-1.8-0.6
			c0.8-1.4,1.2-2.1,1.2-2.3c0.1-0.2,0-0.3-0.1-0.3h-9.4c-0.1,0-0.2,0.1-0.3,0.2l-0.8,2.9H268l1.3-4.8c0.1-0.3,0.2-0.4,0.5-0.4H274.8
			z M271.1,14.2l-0.8,2.9h6.3c0.2,0,0.3-0.1,0.4-0.3l0.7-2.6c0.1-0.2,0-0.3-0.2-0.3h-6C271.2,13.9,271.1,14,271.1,14.2z"/>
	</g>
	<text transform="matrix(0.9996 1.499388e-03 -0.3306 0.9438 62.9346 43.1826)" class="st2 st3">National Taiwan Museum of Fine Arts</text>
</g>
</svg>
