<?xml version="1.0" encoding="utf-8"?>
<!-- Generator: Adobe Illustrator 25.0.1, SVG Export Plug-In . SVG Version: 6.00 Build 0)  -->
<svg version="1.1" id="圖層_1" xmlns="http://www.w3.org/2000/svg" xmlns:xlink="http://www.w3.org/1999/xlink" x="0px" y="0px"
	 viewBox="0 0 287 59" style="enable-background:new 0 0 287 59;" xml:space="preserve">
<style type="text/css">
	.st0{fill:#003D73;}
	.st1{fill:#FFFFFF;}
	.st2{opacity:0.4;}
	.st3{fill:#727171;}
	.st4{font-family:'Helvetica';}
	.st5{font-size:12.1501px;}
	.st6{font-size:12.1547px;}
</style>
<g>
	<g>
		<path class="st0" d="M9.4,50.9L9.4,50.9L9.4,50.9H9.3l-0.4,0l0,0l0-0.1l0,0h0l0,0l0-0.1l0,0H8.6l0,0h0l0,0l-0.2,0l0,0v-0.1l0,0
			l0.2-1.4l0,0l0-1.5l0,0l-0.1-1.5l0,0l-0.2-1.6l0,0l-0.5-1.4l0,0l-0.6-1.4l0,0l-0.8-1.3l0,0c-0.3-0.4-0.6-0.8-0.9-1.2l0,0
			c-0.3-0.9-0.3-2.1-0.3-3.3c0,0,0-0.5,0-0.5l0-1l0,0l0.4-1.1l0,0l0.4-1.2l0,0l0.6-1.1l0,0L7.3,30l0,0l0.9-1.2l0,0l0.7-1.1l0,0
			l0.8-1.2l0,0l1.1-1.8l0,0l1.5-1.7l0,0l1.6-1.6l0,0l2-1.6l0,0l1.9-1.5l0,0l2.1-1.5l0,0l2-1.4l0,0l2.1-1.5l0,0l1.5-1l0,0l1.6-1l0,0
			l1.6-1l0,0l1.6-1l0,0l1.5-1l0,0l1.6-1.3l0,0l1.4-1.2l0,0l1.5-0.9l0,0l0,0l0,0h0l0,0h0.1l0,0h0.1l0,0l0.1,0l0,0h0l0,0h0.1l0,0
			l0.2,0l0,0l2.5,0.4l0,0L39.6,6l0,0h0.2l0,0L40,6l0,0h0.2l0,0l0.2,0l0,0h0.2l0,0l0.2,0l0,0l0.3,0l0,0l-0.1,0.2l0,0v0.2l0,0
			l-0.2,0.2l0,0l0,0.1l0,0l-0.3,0.2l0,0l-0.2,0.1l0,0l-0.2,0.2l0,0l0,0.1l-0.2,0.2l-3.2,2.1l0,0l-3.3,2l0,0l-3.3,1.9l0,0l-3.1,1.9
			l0,0l-3.1,2.1l0,0L21,19.5l0,0l-2.8,2.4l0,0l-2.4,2.6l0,0l-0.1,0.1l0,0l0,0l0,0l-0.2,0.1l0,0l0,0l0,0l-0.1,0.1l0,0l-0.1,0l0,0
			l-0.1,0.1l0,0l0,0l0,0l-1,1.3l0,0l-0.7,1.4l0,0L13,28.9l0,0l-0.4,1.3l0,0L12,31.6l0,0l-0.1,1.3l0,0l0,1.4l0,0l0.3,1.2l0,0l1.2,1.6
			l0,0l0.3,0.4l0,0l0.3,0.4l0,0l0.1,0.5l0,0l0.2,0.5l0,0l0,0.5l0,0l0.1,0.5l0,0l0.1,0.6l0,0l0.3,0.5l0,0l0,0.6l0,0l0.2,0.5l0,0
			l0.1,0.6l0,0l0.2,0.5l0,0l-0.1,0.6l0,0l-0.1,0.5l0,0l-0.3,0.6l0,0l-0.4,0.5l0,0l-0.2,0.5l0,0l-0.2,0.4l0,0l-0.3,0.4l0,0l-0.2,0.5
			l0,0l-0.3,0.5l0,0L13,48l0,0l-0.2,0.4l0,0l-0.3,0.4l0,0l-0.2,0.3l0,0l-0.2,0.3l0,0l-0.3,0.2l0,0l-0.2,0.2l0,0L11.4,50l0,0
			l-0.2,0.3l0,0l-0.3,0.2l0,0l-0.2,0.2l0,0l-0.2,0l0,0h-0.3l0,0l-0.2,0.1l0,0l0,0l0,0l-0.2,0.1l0,0l-0.2,0l0,0L9.4,50.9z"/>
		<path class="st0" d="M47.1,43.4c-0.5,0.3-1,0.3-1.6,0.5L43,43.9H27.1c-1.2-0.1-2.5-0.1-3.3-0.2c-0.2-0.1-0.1-0.3-0.1-0.4
			c0-0.1,0-0.2,0.1-0.3V43c0.2-0.3,0.3-0.6,0.5-0.8l0,0l0.6-0.8l0,0c1.3-1.2,2.5-2.4,3.8-3.7l2.3-2c1.3-1.6,3.6-3.6,4.3-5.6
			c1.4-2.7,2.8-4.8,4.8-7.1l0,0l1.2-1.4l0,0l1.2-1.3l0,0l1.3-1.3l0,0l0.6-0.9l0,0c0.9-1.2,1.8-2.4,2.7-3.5l2.9-2
			c0.2-0.1,0.2-0.2,0.4-0.2c0.3-0.6,1.2-1.3,1.1-1.7c0-0.2-1.4-0.7-1.4-0.8l0,0c-0.4-0.2-0.2-0.1-0.5-0.5l0,0
			c-0.2-0.1-0.3-0.2-0.5-0.4l0,0c-0.3-0.1-0.7-0.2-1-0.4l0,0c-0.7-0.2-0.6-0.2-1-0.8c0.1-0.2-0.1-0.3,0-0.4c-0.3-0.1,0-0.5-0.1-0.8
			c-0.4-0.6,0.6-0.6,1-0.9l1.9-0.1c1.4,0,3,0,4.5,0c1.2,0,2.2,0,3.2,0c0.3,0,0.3,0.1,0.4,0.2c0.1,0.2,0.2,0.3,0.2,0.7
			c0,0.3,0,0.6-0.1,1l-4.8,16.2L48.6,40c-0.1,0.5-0.4,1-0.6,1.5C47.8,42.1,47.6,42.9,47.1,43.4z"/>
	</g>
	<g>
		<path class="st1" d="M72.8,29l-0.3,1.1h-2.3l6.3-22.9c0.2-0.5,0.5-0.8,1-0.8h21.3c0.5,0,0.7,0.3,0.6,0.8l-6.3,22.9h-2.3l0.3-1.1
			H72.8z M94.1,8.5c0,0.6,0.1,1.1,0.1,1.8h1.2l-0.6,2H90c-0.4,2.9-0.6,5-0.7,6.3c1.1-1.5,2.1-3.3,3.1-5.1l1.8,0.5
			c-1.6,3-3.2,5.3-4.7,7.1c-0.1,0.1-0.1,0.1-0.2,0.2c0.1,0.7,0.1,1.3,0.2,1.9c0.1,0.6,0.1,0.9,0.2,0.9c0.2,0,0.3-0.2,0.4-0.5
			c0.3-0.8,0.5-1.7,0.8-2.8l1.8,0.5c-0.7,2.1-1.3,3.7-2,4.6c-0.3,0.4-0.7,0.6-0.9,0.7c-0.3,0.1-0.5,0.1-0.8,0.1
			c-0.5-0.1-0.9-0.4-1.2-1c-0.2-0.6-0.4-1.4-0.5-2.4c-1.3,1.3-2.6,2.4-3.8,3.4l-1.4-1.3c0.6-0.5,1.3-1,1.9-1.5
			c-2.8,0.6-5.8,1-8.9,1.2l0.2-2.1c4-0.3,7.2-0.7,9.4-1.3l-0.1,1.8c1-0.9,1.9-1.7,2.6-2.5c-0.1-2.3,0.1-5.2,0.6-8.8h-9.3l0.6-2h9.1
			c0.1-0.6,0.2-1.2,0.4-1.8h-9.9c-0.2,0-0.3,0.1-0.4,0.3l-5,18.2h18.3l5-18.2c0-0.2,0-0.3-0.2-0.3H94.1z M84.8,20.8
			c-0.1,0.2-0.2,0.3-0.3,0.3h-7.9c-0.2,0-0.2-0.1-0.2-0.3l1.8-6.5c0-0.2,0.2-0.3,0.3-0.3h1.9h6.1c0.2,0,0.2,0.1,0.2,0.3L84.8,20.8z
			 M84,15.9h-4.2c-0.1,0-0.1,0-0.1,0.1l-0.9,3.2c0,0.1,0,0.1,0.1,0.1h4.2c0.1,0,0.1,0,0.1-0.1L84,15.9C84.1,15.9,84.1,15.9,84,15.9z
			 M92.1,10.3C92,9.6,92,9,91.9,8.5h-1.3c-0.1,0.6-0.2,1.2-0.3,1.8H92.1z"/>
		<path class="st1" d="M115.5,27.1c2.9-5,5.3-9.8,7.3-14.3l2.1,0.6c-2.1,4.6-4.4,9.1-7,13.7h7.2l-0.6,2.3h-24.2l0.6-2.3H115.5z
			 M116.9,9l0.9-3.2h2.3L119.2,9h10.2l-0.6,2.3h-22.9l0.6-2.3H116.9z M108,13.4l2.4-0.5c0,5.1-0.2,9.2-0.5,12.4l-2.4,0.3
			C108,21.7,108.2,17.6,108,13.4z"/>
		<path class="st1" d="M135.1,28.8l-0.3,1.2h-2.4l3.1-11.1c0.1-0.5,0.5-0.8,1-0.8h17.6c0.5,0,0.8,0.3,0.6,0.8L151.6,30h-2.4l0.3-1.2
			H135.1z M155,14.2l-20.7,1.6c0-0.7,0-1.5,0-2.3l2.6-0.2c2.5-2.3,4.9-4.8,7.3-7.6l1.6,1.2c-1.4,1.7-3.3,3.8-5.8,6.3l13.8-1
			c-0.2-0.4-1-1.6-2.4-3.4l2.2-1.6c2.2,3.1,3.9,5.7,4.9,7.8l-2.2,1.4C155.9,15.7,155.4,15,155,14.2z M135.7,26.6h14.5l1.6-5.9
			c0.1-0.2,0-0.3-0.3-0.3h-13.8c-0.3,0-0.4,0.1-0.4,0.3L135.7,26.6z"/>
		<path class="st1" d="M166.5,19.7l2,0.1c-1.4,3.9-3.1,7.2-5.2,9.7l-1.9-0.7C163.8,25.9,165.5,22.9,166.5,19.7z M165.4,14.3l1.7-1.6
			c0.8,0.6,1.6,1.5,2.4,2.6l-1.8,1.6C166.9,15.6,166.1,14.8,165.4,14.3z M167.2,7.9l1.7-1.6c0.8,0.6,1.7,1.6,2.6,2.8l-1.8,1.6
			C168.8,9.4,167.9,8.5,167.2,7.9z M169.3,26.7l-0.4,0.9l-1.6-0.6l1.8-4.2c0.2-0.4,0.5-0.6,0.8-0.6h14.3l0.2-0.9
			c0-0.1,0-0.2-0.2-0.2h-14.9l0.5-1.7h16.5c0.3,0,0.4,0.2,0.4,0.4l-1.3,4.8h-1.9l0.2-0.7h-12.9c-0.2,0-0.4,0.2-0.5,0.5l-0.2,0.5
			h15.7c0.4,0,0.6,0.2,0.4,0.6c-0.6,1.6-1.1,2.8-1.7,3.4c-0.2,0.1-0.4,0.3-0.5,0.5c-1.7,1.2-6.2,1.3-13.5,0.4l0.4-1.9
			c2.7,0.4,5.7,0.6,9,0.6c1.7,0,2.9-0.3,3.5-0.7c0.2-0.3,0.3-0.6,0.4-1.1c0,0,0,0-0.2,0H169.3z M170.1,15.6l1.5,0.4
			c-0.3,0.7-0.8,1.8-1.5,3.2l-1.4-0.5C169.2,17.8,169.7,16.7,170.1,15.6z M172.5,14.6l-2.4,0.3c0.1-0.5,0.1-1,0-1.7l1.3-0.2
			c0.5-0.4,1.1-0.9,1.7-1.4c-0.7-0.8-1.3-1.4-2.1-1.9l1.2-1.5c0.1,0,0.2,0.1,0.5,0.3c0.8-0.9,1.5-1.9,2.3-3l1.3,0.8
			c-0.6,0.8-1.5,1.9-2.6,3.2c0.2,0.2,0.4,0.4,0.6,0.6c0.7-0.8,1.3-1.6,1.8-2.4l1.5,0.6c-0.6,1.1-1.9,2.5-3.8,4.3l1.6-0.3
			c0-0.3,0-0.6-0.1-0.9l1.6-0.4c0.1,0.9,0.1,2.1,0,3.4l-1.6,0.3c0-0.3,0-0.5,0.1-0.7l-1.2,0.2l-1.3,4.5h-1.7L172.5,14.6z
			 M174.5,15.9l1.7-0.3c-0.1,1.2-0.2,2.2-0.3,2.8l-1.6,0.1C174.4,17.6,174.5,16.7,174.5,15.9z M181.3,18.6c-0.1,0.1-0.1,0.2-0.3,0.2
			h-4.5c-0.1,0-0.2-0.1-0.1-0.2l1.3-4.6c0-0.1,0.1-0.2,0.2-0.2h1.3h3.2c0.1,0,0.2,0.1,0.2,0.2L181.3,18.6z M178.2,11.9h4.9l-0.4,1.3
			h-4.9L178.2,11.9z M180.7,15.2h-1.9c-0.1,0-0.1,0-0.1,0l-0.6,2.2c0,0,0,0.1,0,0.1h1.9c0.1,0,0.1-0.1,0.1-0.1L180.7,15.2
			C180.8,15.2,180.8,15.2,180.7,15.2z M185.5,14.4l-2.4,0.3c0.1-0.5,0.1-1.1,0-1.7l1.5-0.2c0.4-0.3,0.9-0.7,1.4-1.2
			c-0.6-0.8-1.3-1.5-2-2.1l0.1-0.2h-6l0.4-1.3h6.2l-0.3,1l0.9-1c0.1,0,0.3,0.1,0.5,0.3c0.7-0.8,1.4-1.7,2.1-2.7l1.3,0.8
			c-0.5,0.8-1.3,1.7-2.4,2.9c0.2,0.2,0.4,0.5,0.6,0.8c0.7-0.9,1.3-1.7,1.8-2.5l1.5,0.5c-0.5,0.9-1.7,2.3-3.7,4.2l1.5-0.2
			c0-0.5-0.1-0.8-0.1-1l1.7-0.4c0.1,1.2,0.1,2.5,0.1,3.6l-1.7,0.3c0-0.3,0-0.5,0-0.7l-1.2,0.2L186,19h-1.7L185.5,14.4z M178.7,10
			h5.1l-0.3,1.3h-5.1L178.7,10z M179.5,6.1h5.4l-0.4,1.3h-5.4L179.5,6.1z M183.1,15.3l1.5,0.3c-0.5,1.2-1,2.3-1.4,3.3l-1.5-0.4
			C182.1,17.8,182.5,16.8,183.1,15.3z M187.4,15.7l1.7-0.4c0,1.5,0,2.5-0.1,3.2l-1.7,0.2C187.4,17.5,187.5,16.5,187.4,15.7z"/>
		<path class="st1" d="M205.1,24.1h-9.7L196,22h10.4c0.1-0.2,0.1-0.5,0.2-0.7l0.4-1.6h-10.9l0.6-2.1h10.8l0.6-2.1h-9l0.6-2.2h9
			l0.6-2h-10.1l0.6-2.2h6.1c-0.3-0.9-0.7-1.6-1-2.1l2.2-1.4c0.5,0.7,0.9,1.6,1.3,2.8l-1.2,0.7h6.6c1.2-1.6,2.1-2.7,2.6-3.4l1.7,1
			c-0.6,0.8-1.2,1.6-1.8,2.4h5.9l-0.6,2.2h-10l-0.6,2h8.8l-0.6,2.2h-8.8l-0.6,2.1h10.8l-0.6,2.1h-10.7l-0.4,1.6
			c-0.1,0.3-0.2,0.5-0.2,0.7h10.2l-0.6,2.1h-9.3c1.5,2.6,4.5,3.9,9,3.9l-1.2,2.3c-0.1,0-0.2,0-0.3,0c-4.8-0.3-8-2.1-9.7-5.2
			c-0.4,0.4-0.7,0.7-1,1.1c-2.4,2-6.4,3.4-12,4l0.1-2.4C199.4,27.5,203.2,26.3,205.1,24.1z"/>
		<path class="st1" d="M228.3,18.7c-0.7,0.5-1.4,1.1-2.1,1.5c-0.2-0.7-0.5-1.3-0.8-1.6c2.7-1.8,5.1-4.2,7.2-7.2l1.6,1
			c-0.9,1.2-2,2.4-3.1,3.6l-3.9,14.2h-2L228.3,18.7z M233.1,5.8l1.7,1c-2.1,2.9-4.3,5.2-6.7,6.9c-0.3-0.7-0.6-1.2-1-1.5
			C229.4,10.5,231.4,8.4,233.1,5.8z M233.8,14.8h2l-0.5,1.7c-1.5,4.8-3.1,8.5-4.6,10.9l-2-0.3c2-3,3.5-6.5,4.6-10.5L233.8,14.8z
			 M237.7,12.4h-3.3l0.6-2h3.3l1.3-4.6h2.1l-1.3,4.6h3.8l-0.6,2h-3.8L235,30.2h-2.1L237.7,12.4z M240.3,15.1h2l-2.1,7.8
			c-0.1,0.4,0,0.6,0.4,0.6h1.5l-0.6,2.1h-3.1c-0.6,0-0.9-0.3-0.7-1L240.3,15.1z M247.2,14.8H244l0.6-2.1h7.1l-0.5,2.1h-1.7
			l-3.5,12.8c-0.3,1-0.9,1.7-1.7,2.2c-1,0.6-2.6,0.5-4.8-0.2l0.7-2.2c1.8,0.6,3,0.7,3.5,0.4c0.2-0.1,0.3-0.4,0.4-0.7L247.2,14.8z
			 M242.3,6.6l2.1-0.9c0.4,1.3,0.6,2.4,0.7,3L243,9.5C242.9,8.8,242.7,7.8,242.3,6.6z M246.8,7h5.8l-0.6,2.1h-5.8L246.8,7z"/>
		<path class="st1" d="M262.1,28.7c-3.6,0.8-6.5,1.2-8.6,1.5l0.1-2.2c0.4,0,0.9-0.1,1.4-0.2l4.1-15c0.1-0.4,0.4-0.6,0.7-0.6h2.7
			l0.6-2.1h2l-0.6,2.1h2.5c0.4,0,0.6,0.2,0.4,0.6l-2.7,9.8c-0.1,0.4-0.4,0.6-0.8,0.6h-5.7l-1.2,4.2c0.4-0.1,1.9-0.4,4.7-0.9
			c-0.2-1-0.3-1.6-0.3-1.9l2.1-0.7c0.4,3,0.6,4.8,0.6,5.5l-2.1,0.6C262.2,29.6,262.2,29.2,262.1,28.7z M265,8.1
			c-1.4,1.2-3.1,2.3-5.2,3.5l-1.5-1.4c3-1.4,5.2-2.8,6.4-4.2l2,0.1c-0.1,0.2-0.2,0.3-0.3,0.4c0.8,0.8,1.7,1.6,2.8,2.3l-2,1.7
			C266.3,9.8,265.6,9,265,8.1z M263.9,18.8h-4.3l-0.7,2.5h4c0.2,0,0.4-0.1,0.4-0.3L263.9,18.8z M260.1,16.7h4.3l0.5-1.9
			c0.1-0.3,0-0.5-0.4-0.5h-3.2c-0.3,0-0.6,0.2-0.7,0.5L260.1,16.7z M277.1,29c-0.2,0.5-0.5,0.8-1,0.8h-10.2c-0.5,0-0.6-0.2-0.5-0.7
			l4.3-15.7c0.1-0.4,0.4-0.6,0.8-0.6h9.6c0.4,0,0.6,0.2,0.5,0.6l-1.7,6c-0.1,0.4-0.4,0.6-0.8,0.6H270l-0.5,1.9h8.8
			c0.5,0,0.7,0.2,0.5,0.7L277.1,29z M275.9,23.9h-7l-0.9,3.4c-0.1,0.2,0,0.2,0.2,0.2h6.7c0.2,0,0.3-0.1,0.3-0.2l0.9-3.2
			C276.1,24,276.1,23.9,275.9,23.9z M275.1,7.6l0.5-1.7h2.3l-0.5,1.7h4.7l1.6,0.9c-0.5,1.2-1.3,2.7-2.3,4.3l-1.7-0.6
			c0.8-1.3,1.2-2.1,1.2-2.3c0.1-0.2,0-0.3-0.1-0.3h-9.3c-0.1,0-0.2,0.1-0.2,0.2l-0.8,2.8h-2l1.3-4.7c0.1-0.3,0.2-0.4,0.5-0.4H275.1z
			 M271.4,15.1l-0.8,2.9h6.3c0.2,0,0.3-0.1,0.4-0.3l0.7-2.5c0.1-0.2,0-0.3-0.2-0.3h-6C271.6,14.9,271.4,15,271.4,15.1z"/>
	</g>
	<g class="st2">
		<g class="st2">
			<text transform="matrix(1 1.499959e-03 -0.3307 0.9441 65.5607 43.7813)"><tspan x="0" y="0" class="st3 st4 st5">National</tspan><tspan x="46.6" y="0" class="st3 st4 st5"> </tspan></text>
			<text transform="matrix(1 1.499959e-03 -0.3307 0.9441 115.5909 43.8564)" class="st3 st4 st5">T</text>
			<text transform="matrix(1 1.499959e-03 -0.3307 0.9441 121.9191 43.8659)"><tspan x="0" y="0" class="st3 st4 st5">aiwan Museum of Fine</tspan><tspan x="127.3" y="0" class="st3 st4 st5"> </tspan></text>
			<text transform="matrix(1 1.499959e-03 -0.3307 0.9441 252.213 44.0613)"><tspan x="0" y="0" class="st3 st4 st5">Art</tspan><tspan x="16.3" y="0" class="st3 st4 st5">s</tspan></text>
		</g>
	</g>
	<text transform="matrix(0.9996 1.499387e-03 -0.3306 0.9438 65.5604 43.7808)" class="st1 st4 st6">National Taiwan Museum of Fine Arts</text>
</g>
</svg>
